<svg width="375" height="732" fill="none" xmlns="http://www.w3.org/2000/svg"><g opacity=".2" stroke="#fff" stroke-width="1.47" stroke-linecap="round" stroke-linejoin="round"><path d="M-340.35 7.863c-24.198 40.198-21.163 98.847-9.015 142.245 8.43 30.117 23.255 58.611 43.205 83.439 18.517 23.044 36.358 46.546 68.466 52.104 24.154 4.182 48.336-2.624 67.846-16.176 19.985-13.884 32.564-35.283 49.572-51.96a364.954 364.954 0 0140.391-34.206c13.206-9.637 28.104-21.301 43.962-26.638 38.604-12.992 82.86-7.276 116.084 15.424a122.488 122.488 0 017.806 5.8c28.984 23.382 45.472 61.249 33.931 96.618-12.319 37.753-73.453 82.083-112.6 48.003C-2.473 312.267-7.729 296.243-5.73 281.26c2.286-17.128 14.079-29.286 23.614-42.996 12.321-17.717 28.006-33.959 44.048-48.724 23.314-21.458 50.378-40.398 81.722-48.816 29.168-7.834 70.976-7.373 93.216 14.933 14.043 14.084 19.883 32.89 21.561 51.764 2.229 25.064 10.989 52.095 41.749 56.369 25.161 3.495 41.138-8.878 61.377-20.26 20.475-11.515 42.639-21.492 66.706-23.489 7.346-.61 15.93 1.025 15.026 10.037-.958 9.555-15.768 9.619-23.531 9.132"/><path d="M-318.994 691.101c9.022-29.884 16.368-60.66 16.194-91.876-.369-66.443-58.195-144.675-128.283-151.961-25.518-2.653-37.52-16.35-50.917-37.77 23.179-35.289 54.357-65.289 90.511-87.094 43.492-26.23 99.005-25.691 146.305-11.232 32.12 9.819 58.266 32.614 89.92 43.523 35.566 12.257 71.704 4.818 101.528-17.814 13.826-10.491 25.166-25.075 28.84-42.037 3.675-16.963-1.407-36.28-14.975-47.103-13.569-10.822-35.595-10.636-47.18 2.289-10.1 11.27-10.384 28.503-6.067 43.011 10.538 35.42 40.109 58.495 74.13 69.866 54.935 18.361 111.816-5.294 167.706-1.131 20.628 1.536 64.362 9.427 68.293 34.651 4.613 29.596-27.697 33.96-47.654 21.453-34.548-21.65-11.572-73.508 8.395-97.406 17.18-20.565 39.363-36.204 59.905-53.413 34.5-28.904 53.28-65.263 59.289-109.843C304.494 101.222 285.331 51.359 263.653 1M-220.432 708.362c17.8-47.56 72.339-82.686 132.112-93.448 68.805-12.387 140.876-1.252 196.068 35.115 28.368 18.692 44.458 43.621 68.579 65.057 15.726 13.972 41.029 16.587 63.082 15.201 22.889-1.438 49.545-.434 70.522-8.86 13.105-5.265 24.316-14.722 27.176-26.364 4.057-16.516-8.769-32.201-18.4-47.119-21.571-33.411-30.269-72.085-16.767-108.235 10.447-27.972 34.044-52.876 73.899-45.249 15.987 3.061 35.555 20.674 21.445 33.386-4.142 3.731-9.643 6.421-13.285 10.48-5.373 5.988-5.427 14.58-.956 20.927 5.865 8.326 13.768 7.873 29.987 7.807"/><path d="M42.387 720.77a481.332 481.332 0 0037.606-69.306c17.323-39.302 25.749-68.464 73.414-75.225 37.785-5.36 62.13 24.886 70.505 60.427 7.463 31.676-3.249 60.455-1.702 92.036"/></g></svg>